<svg width="547.545" height="900.411" xmlns="http://www.w3.org/2000/svg" xmlns:xlink="http://www.w3.org/1999/xlink" id="svg1" xml:space="preserve" overflow="hidden"><defs id="defs1"></defs><g id="g1" transform="translate(1425.95 1628.23)"><path d="M-1060.35-1616.67C-1065.96-1617.5-1071.55-1615.1-1074.82-1610.47L-1412.04-1131.81C-1416.81-1125.04-1415.18-1115.68-1408.41-1110.91-1405.88-1109.13-1402.87-1108.17-1399.78-1108.17L-1175.97-1108.17C-1175.03-1108.3-1174.1-1108.51-1173.19-1108.8L-1256.39-757.668C-1258.3-749.605-1253.31-741.523-1245.25-739.617-1244.83-739.519-1244.42-739.439-1244-739.377-1238.39-738.546-1232.8-740.941-1229.53-745.57L-892.312-1224.23C-887.542-1231-889.166-1240.36-895.94-1245.13-898.468-1246.91-901.483-1247.87-904.574-1247.87L-1128.38-1247.87C-1129.32-1247.75-1130.25-1247.54-1131.16-1247.24L-1047.96-1598.37C-1046.05-1606.44-1051.04-1614.52-1059.11-1616.43-1059.52-1616.52-1059.94-1616.6-1060.35-1616.67Z" id="path4-9" stroke="#FFCB58" stroke-width="15.8841" stroke-linecap="round" stroke-linejoin="round" fill="#F39327"/></g></svg>