<svg width="737.191" height="407.898" xmlns="http://www.w3.org/2000/svg" xmlns:xlink="http://www.w3.org/1999/xlink" id="svg1" xml:space="preserve" overflow="hidden"><style>
.MsftOfcThm_Text1_Fill_v2 {
 fill:#FFFFFF; 
}
</style>
<defs id="defs1"></defs><g id="g1" transform="translate(2114.05 905.826)"><path d="M-1745.48-905.826C-1893.6-905.762-2031.58-832.587-2111.18-711.469-2115-705.647-2115-698.109-2111.18-692.287-2031.59-571.167-1893.6-497.992-1745.48-497.928-1745.47-497.928-1745.47-497.928-1745.46-497.928-1597.32-497.978-1459.32-571.155-1379.72-692.287-1375.9-698.109-1375.9-705.647-1379.72-711.469-1459.32-832.6-1597.32-905.776-1745.46-905.826-1745.47-905.826-1745.47-905.826-1745.48-905.826ZM-1745.48-870.898-1745.46-870.898C-1612.86-870.849-1489.53-807.117-1415.67-701.879-1489.53-596.639-1612.86-532.905-1745.46-532.855-1878.06-532.913-2001.37-596.646-2075.23-701.879-2001.37-807.106-1878.07-870.836-1745.48-870.898ZM-1745.45-838.637C-1820.98-838.637-1882.21-777.407-1882.21-701.877-1882.21-626.347-1820.98-565.117-1745.45-565.117-1669.92-565.117-1608.69-626.347-1608.69-701.877-1608.69-777.407-1669.92-838.637-1745.45-838.637Z" id="path6-6" class="MsftOfcThm_Text1_Fill_v2" color="#000000" stroke-linecap="round" stroke-linejoin="round" fill="#FFFFFF"/></g></svg>