<?xml version="1.0" encoding="UTF-8" standalone="no"?>
<!-- Created with Inkscape (http://www.inkscape.org/) -->

<svg
   width="1169.042"
   height="791.76514"
   viewBox="0 0 1169.042 791.76514"
   version="1.1"
   id="svg1"
   xml:space="preserve"
   inkscape:version="1.3.2 (091e20e, 2023-11-25, custom)"
   sodipodi:docname="gamepad-plain.svg"
   xmlns:inkscape="http://www.inkscape.org/namespaces/inkscape"
   xmlns:sodipodi="http://sodipodi.sourceforge.net/DTD/sodipodi-0.dtd"
   xmlns="http://www.w3.org/2000/svg"
   xmlns:svg="http://www.w3.org/2000/svg"><sodipodi:namedview
     id="namedview1"
     pagecolor="#505050"
     bordercolor="#eeeeee"
     borderopacity="1"
     inkscape:showpageshadow="0"
     inkscape:pageopacity="0"
     inkscape:pagecheckerboard="0"
     inkscape:deskcolor="#505050"
     inkscape:document-units="px"
     inkscape:zoom="0.41163716"
     inkscape:cx="398.40912"
     inkscape:cy="287.87488"
     inkscape:window-width="1920"
     inkscape:window-height="1009"
     inkscape:window-x="312"
     inkscape:window-y="1432"
     inkscape:window-maximized="1"
     inkscape:current-layer="layer1" /><defs
     id="defs1"><inkscape:perspective
       sodipodi:type="inkscape:persp3d"
       inkscape:vp_x="0 : 395.88257 : 1"
       inkscape:vp_y="0 : 1000 : 0"
       inkscape:vp_z="1169.042 : 395.88257 : 1"
       inkscape:persp3d-origin="584.521 : 263.92171 : 1"
       id="perspective6" /></defs><g
     inkscape:label="Layer 1"
     inkscape:groupmode="layer"
     id="layer1"
     transform="translate(-25.369609,321.26945)"><path
       id="path1"
       style="fill:#000000"
       d="M 945.30906 -321.10539 C 908.88046 -319.18375 888.74558 -309.10599 883.19578 -290.01554 C 880.62958 -281.18834 877.08389 -278.29929 866.32469 -276.2714 C 860.12679 -275.10324 793.72599 -274.63445 608.64109 -274.45109 C 373.37782 -274.21802 358.7356 -274.33737 349.16062 -276.58586 C 337.77511 -279.25947 334.63238 -281.80839 332.21336 -290.32218 C 330.17659 -297.49071 323.90591 -305.99701 317.56492 -310.19328 C 310.06538 -315.15621 289.24035 -319.98388 270.94578 -321.00187 C 251.38285 -322.09043 230.96099 -319.31468 212.24266 -313.02336 C 187.42102 -304.68058 178.47918 -298.0939 171.71141 -283.16789 C 169.57297 -278.45166 165.25675 -271.80548 162.11961 -268.39836 C 158.98247 -264.99115 152.91735 -255.60359 148.64305 -247.53703 C 144.36865 -239.47046 137.17617 -226.2697 132.65867 -218.20304 C 122.27016 -199.65283 114.16689 -183.66585 108.62547 -170.78312 C 101.50016 -154.2183 83.526827 -88.547504 72.887187 -40.203044 C 71.031207 -31.769784 67.698757 -16.770913 65.480937 -6.8710125 C 54.849477 40.585727 39.898255 121.54262 35.316875 156.46297 C 22.031685 257.72604 22.051317 316.74998 35.387187 369.47078 C 48.356287 420.74174 86.013482 457.24282 137.44773 468.40047 C 156.78698 472.59577 185.66658 470.32061 204.88719 463.08602 C 236.95849 451.0144 267.65424 417.68794 284.03367 377.15633 C 286.26218 371.64191 289.24854 364.42889 290.67039 361.12899 C 294.74071 351.68221 310.45362 311.33842 316.63523 294.46297 C 341.47342 226.6565 343.38354 222.26483 349.69578 218.4161 C 351.47611 217.33057 353.07665 216.71885 354.70359 216.37117 C 368.11468 225.87164 383.26779 232.63412 399.29539 236.27157 L 399.3032 236.27352 C 400.67112 236.59483 402.04436 236.89305 403.42234 237.16805 L 403.41062 237.16805 C 411.13175 238.74201 418.98444 239.58234 426.86375 239.67782 L 426.91844 239.68172 L 426.95945 239.67782 C 435.78223 239.57007 444.5689 238.52845 453.17234 236.57039 L 453.16258 236.57039 C 454.64024 236.27737 456.11249 235.95765 457.57859 235.61141 L 457.58055 235.60946 C 475.89978 231.00436 492.93728 222.30731 507.41258 210.17196 C 521.29575 208.50715 546.87457 208.46297 609.86375 208.46297 C 668.72669 208.46297 694.81477 208.51957 709.71531 210.00594 C 724.2088 222.20708 741.28624 230.95416 759.65672 235.58602 L 759.66062 235.58602 C 761.14608 235.93819 762.6379 236.26311 764.13523 236.56063 L 764.14695 236.56258 C 768.45364 237.54402 772.80585 238.29655 777.18602 238.81649 C 781.58016 239.33903 786.00108 239.63004 790.43211 239.68367 L 790.39109 239.67782 L 790.43211 239.68172 L 790.4868 239.67782 L 790.43211 239.68367 C 798.35795 239.5885 806.25686 238.73959 814.02195 237.14852 L 814.03367 237.14657 C 815.38543 236.8759 816.73262 236.58289 818.07469 236.26766 L 818.0825 236.26571 C 834.17697 232.60686 849.38764 225.79679 862.83641 216.2286 C 865.28214 216.2764 867.44774 216.90158 869.92039 218.42977 C 875.39519 221.81345 879.41169 229.39092 887.95359 252.46297 C 891.75459 262.72954 896.98519 276.52899 899.57859 283.12899 C 902.17199 289.72889 907.75213 304.12909 911.97703 315.12899 C 939.58313 387.00255 949.69288 407.30366 968.88328 429.39266 C 986.89428 450.12409 1007.6297 462.35525 1035.1313 468.46883 C 1049.1371 471.58223 1075.9172 470.66525 1091.3091 466.545 C 1113.7462 460.53865 1133.63 448.71722 1150.0708 431.60946 C 1167.8191 413.14103 1176.9619 396.39097 1184.6938 368.17977 C 1193.9412 334.43913 1196.5085 293.23612 1192.7368 239.12899 C 1189.9218 198.74529 1182.5319 142.00968 1174.5005 99.128987 C 1156.8688 4.992873 1144.495 -49.144098 1129.5473 -97.537028 C 1126.7159 -106.70359 1121.2886 -124.27688 1117.4868 -136.58781 C 1106.5512 -171.99894 1100.6568 -185.31729 1079.2016 -223.10343 C 1073.0911 -233.86509 1066.3616 -246.46529 1064.2466 -251.10343 C 1062.1315 -255.74166 1057.0434 -263.61569 1052.9399 -268.60148 C 1048.7306 -273.71596 1044.529 -280.52793 1043.2993 -284.23039 C 1040.5211 -292.5945 1031.8803 -301.23973 1020.9067 -306.63468 C 1001.4189 -316.21556 969.27116 -322.3694 945.30906 -321.10539 z M 953.2407 -295.09562 C 962.27619 -295.09262 971.33428 -294.66542 973.97508 -293.81828 C 976.84538 -292.89746 971.00996 -292.5317 953.30906 -292.5214 C 935.17996 -292.5109 929.70129 -292.85741 932.64109 -293.83195 C 935.19134 -294.67733 944.20521 -295.09871 953.2407 -295.09562 z M 263.69773 -295.04875 C 272.71857 -295.05775 281.81565 -294.66862 284.53953 -293.87297 C 287.06203 -293.13605 279.77219 -292.69351 263.87156 -292.62101 C 245.96291 -292.53931 240.39281 -292.86792 243.30906 -293.83195 C 245.73151 -294.63271 254.6769 -295.03995 263.69773 -295.04875 z M 265.86375 -269.87101 C 290.11137 -270.10478 310.80017 -266.18068 326.69187 -258.17765 C 341.68333 -250.62812 349.12896 -249.34176 383.30906 -248.39054 C 395.50325 -248.05118 402.23003 -247.76792 406.72508 -247.40031 C 406.33917 -245.46953 406.13133 -243.47332 406.13133 -241.4257 L 406.13133 -42.917888 C 406.13133 -26.238237 419.5591 -12.810466 436.23875 -12.810466 L 783.54148 -12.810466 C 800.22114 -12.810466 813.64891 -26.238237 813.64891 -42.917888 L 813.64891 -241.4257 C 813.64891 -243.55287 813.42591 -245.62463 813.01023 -247.62492 C 817.36204 -248.0547 823.70444 -248.30248 835.5532 -248.5839 C 869.4378 -249.38872 873.75067 -250.16865 892.25437 -258.83976 C 911.76337 -267.98191 916.85396 -268.87357 949.30906 -268.84367 C 975.19656 -268.81977 979.78419 -268.45926 996.64109 -265.12101 C 1027.7589 -258.9588 1031.7892 -256.91089 1038.5981 -243.80656 C 1046.5904 -228.42479 1058.4876 -207.10513 1064.6509 -196.96672 C 1038.5266 -215.85009 1007.1158 -226.02063 974.88133 -226.03312 C 890.19442 -226.03286 821.54174 -157.38019 821.54148 -72.693278 C 821.71176 -47.193492 828.23881 -22.138523 840.53172 0.20320625 C 829.70869 -4.5404845 818.27267 -7.5912018 806.60984 -9.1229656 L 806.60789 -9.1229656 C 801.29592 -9.8205432 795.95277 -10.297172 790.57078 -10.306559 C 790.52503 -10.306611 790.47981 -10.316324 790.43406 -10.316325 L 790.4907 -10.310466 L 790.43406 -10.314372 L 790.39695 -10.312419 L 790.43016 -10.316325 C 790.39421 -10.316322 790.35868 -10.308545 790.32273 -10.308513 C 721.33716 -10.248512 665.43427 45.688613 665.43211 114.68367 C 665.43611 138.60125 672.30103 162.0159 685.21336 182.14852 C 669.43878 182.36035 647.00292 182.46297 609.30906 182.46297 C 576.77735 182.46297 551.05279 182.27642 532.2075 182.02157 C 545.07178 161.91778 551.91161 138.55106 551.91844 114.68367 C 551.91809 81.532335 538.74858 49.738587 515.30711 26.296956 L 515.28758 26.279378 C 507.81377 18.87802 499.43573 12.449625 490.35203 7.1465656 C 489.76125 6.78552 489.16748 6.4293858 488.57078 6.0782062 C 474.7535 -1.7941076 459.59773 -6.8758033 443.94969 -9.0585125 L 443.94773 -9.0604656 C 438.40011 -9.8341881 432.79781 -10.277528 427.16062 -10.298747 C 427.07958 -10.298907 426.99949 -10.316323 426.91844 -10.316325 L 426.95164 -10.312419 L 426.91844 -10.314372 L 426.85594 -10.310466 L 426.91844 -10.316325 C 426.87074 -10.316322 426.82356 -10.306617 426.77586 -10.306559 C 410.64009 -10.200658 394.67674 -6.9749538 379.76805 -0.8007 C 391.71968 -22.890521 398.06246 -47.578121 398.23875 -72.693278 C 398.23849 -157.38012 329.58579 -226.03285 244.89891 -226.03312 C 209.41729 -225.94792 175.06303 -213.56048 147.69187 -190.98234 C 149.43917 -194.56794 151.63883 -198.90322 154.29344 -203.81633 C 160.15367 -214.66232 168.12161 -229.75872 172.00047 -237.3632 C 178.00762 -249.14044 179.95512 -251.76169 185.13523 -255.04679 C 192.49963 -259.71715 195.60811 -260.63525 218.64109 -264.94328 C 235.48386 -268.09339 251.31516 -269.73075 265.86375 -269.87101 z M 442.66648 -246.53312 L 777.11375 -246.53312 C 783.50427 -246.53312 788.64891 -241.38849 788.64891 -234.99797 L 788.64891 -49.345622 C 788.64891 -42.9551 783.50427 -37.808513 777.11375 -37.808513 L 442.66648 -37.808513 C 436.27596 -37.808513 431.13133 -42.9551 431.13133 -49.345622 L 431.13133 -234.99797 C 431.13133 -241.38849 436.27596 -246.53312 442.66648 -246.53312 z M 242.16258 -208.14445 C 316.97005 -208.14467 377.61397 -147.50078 377.61375 -72.693278 C 377.61397 2.1142051 316.97005 62.758115 242.16258 62.757894 C 167.35508 62.758115 106.71119 2.1142051 106.71141 -72.693278 C 106.71119 -147.50078 167.35508 -208.14467 242.16258 -208.14445 z M 974.88328 -208.14445 C 1049.6903 -208.14463 1110.3327 -147.50047 1110.3325 -72.693278 C 1110.3327 2.1138781 1049.6903 62.758074 974.88328 62.757894 C 900.07604 62.758134 839.42994 2.1139181 839.43016 -72.693278 C 839.42994 -147.50051 900.07604 -208.14469 974.88328 -208.14445 z M 974.88328 -196.90812 C 950.93452 -196.90801 931.51825 -177.49354 931.51805 -153.54484 C 931.51825 -129.59614 950.93452 -110.18167 974.88328 -110.18156 C 998.83194 -110.18173 1018.2445 -129.59619 1018.2446 -153.54484 C 1018.2445 -177.4935 998.83194 -196.90795 974.88328 -196.90812 z M 974.88328 -184.12883 C 991.77464 -184.12909 1005.4666 -170.43622 1005.4673 -153.54484 C 1005.4676 -136.6527 991.77544 -122.95857 974.88328 -122.9589 C 957.99192 -122.95961 944.29704 -136.65344 944.29734 -153.54484 C 944.29814 -170.43548 957.99262 -184.12812 974.88328 -184.12883 z M 222.78172 -178.10929 C 213.2968 -178.10929 205.66062 -170.4731 205.66062 -160.9882 L 205.66062 -122.55265 C 205.66062 -121.2475 205.81819 -119.98363 206.09227 -118.76359 C 206.15467 -117.92236 206.45889 -116.97805 206.98484 -115.9257 C 207.95505 -113.60477 209.43007 -111.55984 211.26023 -109.89445 C 213.31263 -107.48453 215.934 -104.721 219.09617 -101.53117 C 240.26748 -80.174733 245.42901 -80.197909 266.01805 -101.75383 C 268.97232 -104.8468 271.43161 -107.53869 273.38328 -109.90031 C 275.40042 -111.73792 276.96769 -114.04992 277.92234 -116.66789 C 278.21206 -117.3448 278.3988 -117.9715 278.4907 -118.55461 C 278.79655 -119.83921 278.97703 -121.17172 278.97703 -122.55265 L 278.97703 -160.9882 C 278.97703 -170.4731 271.34086 -178.10929 261.85594 -178.10929 L 222.78172 -178.10929 z M 229.59227 -161.97648 L 255.04734 -161.97648 C 261.22605 -161.97648 266.19773 -157.00277 266.19773 -150.82414 L 266.19773 -125.78508 C 266.19773 -124.88551 266.08251 -124.01842 265.88328 -123.18156 C 265.82348 -122.80169 265.70092 -122.39399 265.51219 -121.95304 C 264.89031 -120.24771 263.86907 -118.73996 262.55516 -117.54289 C 261.28381 -116.00448 259.68278 -114.25106 257.75828 -112.23625 C 244.34616 -98.194341 240.98331 -98.181667 227.19187 -112.09367 C 225.13206 -114.17157 223.42533 -115.96911 222.08836 -117.53898 C 220.8961 -118.62387 219.93326 -119.95678 219.30125 -121.46867 C 218.95862 -122.15419 218.75982 -122.77028 218.71922 -123.31828 C 218.54067 -124.113 218.43797 -124.93487 218.43797 -125.78508 L 218.43797 -150.82414 C 218.43797 -157.00277 223.41356 -161.97648 229.59227 -161.97648 z M 894.03172 -116.05656 C 870.08227 -116.05751 850.66661 -96.6427 850.66648 -72.693278 C 850.66661 -48.743856 870.08227 -29.329047 894.03172 -29.329997 C 917.9796 -29.331197 937.39295 -48.745386 937.39305 -72.693278 C 937.39295 -96.64117 917.9796 -116.05556 894.03172 -116.05656 z M 1055.7348 -116.05656 C 1031.7859 -116.05755 1012.3697 -96.64272 1012.3696 -72.693278 C 1012.3697 -48.743836 1031.7859 -29.329007 1055.7348 -29.329997 C 1079.6829 -29.331197 1099.0961 -48.745396 1099.0962 -72.693278 C 1099.0961 -96.64116 1079.6829 -116.05556 1055.7348 -116.05656 z M 153.86766 -109.50578 C 144.38275 -109.50578 136.74656 -101.8696 136.74656 -92.384684 L 136.74656 -53.310466 C 136.74656 -43.825538 144.38275 -36.189372 153.86766 -36.189372 L 192.3032 -36.189372 C 193.60835 -36.189372 194.87222 -36.346923 196.09227 -36.621013 C 196.93342 -36.68341 197.87779 -36.987641 198.93016 -37.513591 C 201.251 -38.483803 203.29599 -39.958757 204.96141 -41.788981 C 207.37125 -43.841365 210.13486 -46.462763 213.32469 -49.624919 C 234.68114 -70.796211 234.6579 -75.957754 213.10203 -96.546794 C 210.00895 -99.5011 207.3171 -101.96039 204.95555 -103.91203 C 203.11792 -105.92918 200.80595 -107.49645 198.18797 -108.45109 C 197.51105 -108.74082 196.88436 -108.92755 196.30125 -109.01945 C 195.01658 -109.32529 193.68413 -109.50578 192.3032 -109.50578 L 153.86766 -109.50578 z M 292.02195 -109.19523 C 290.71681 -109.19523 289.45292 -109.03767 288.23289 -108.76359 C 287.39166 -108.70119 286.44735 -108.39892 285.395 -107.87297 C 283.07408 -106.90274 281.02917 -105.42586 279.36375 -103.59562 C 276.95384 -101.54322 274.19032 -98.92185 271.00047 -95.759684 C 249.64402 -74.58841 249.66731 -69.426849 271.22312 -48.837809 C 274.31619 -45.883513 277.00799 -43.424209 279.36961 -41.472575 C 281.20724 -39.455441 283.51733 -37.888145 286.13523 -36.933513 C 286.81214 -36.643793 287.43884 -36.457053 288.02195 -36.365153 C 289.30662 -36.059303 290.64103 -35.880778 292.02195 -35.880778 L 330.4575 -35.880778 C 339.94243 -35.880778 347.57859 -43.514991 347.57859 -52.999919 L 347.57859 -92.074138 C 347.57859 -101.55906 339.94243 -109.19523 330.4575 -109.19523 L 292.02195 -109.19523 z M 894.03172 -103.27726 C 910.92237 -103.27654 924.615 -89.583929 924.6157 -72.693278 C 924.6161 -55.801867 910.92307 -42.108061 894.03172 -42.107341 C 877.13957 -42.106991 863.44543 -55.801107 863.44578 -72.693278 C 863.4465 -89.584689 877.14033 -103.27761 894.03172 -103.27726 z M 1055.7348 -103.27726 C 1072.6256 -103.27654 1086.3181 -89.583939 1086.3188 -72.693278 C 1086.3192 -55.801857 1072.6263 -42.108061 1055.7348 -42.107341 C 1038.8432 -42.106951 1025.1485 -55.801077 1025.1489 -72.693278 C 1025.1496 -89.584719 1038.8439 -103.27765 1055.7348 -103.27726 z M 164.03367 -96.726481 L 189.07078 -96.726481 C 189.97034 -96.726481 190.83745 -96.611258 191.6743 -96.412028 C 192.05417 -96.352228 192.46382 -96.23158 192.90477 -96.042888 C 194.6101 -95.420998 196.1159 -94.399838 197.31297 -93.085856 C 198.85138 -91.814502 200.60475 -90.211522 202.61961 -88.287028 C 216.66148 -74.87493 216.67616 -71.51199 202.76414 -57.720622 C 200.68622 -55.660718 198.88674 -53.954068 197.31687 -52.617106 C 196.23208 -51.424854 194.89909 -50.461999 193.38719 -49.829997 C 192.70169 -49.487377 192.08558 -49.290519 191.53758 -49.249919 C 190.74284 -49.071369 189.92099 -48.968669 189.07078 -48.968669 L 164.03367 -48.968669 C 157.85504 -48.968669 152.87937 -53.942361 152.87937 -60.121013 L 152.87937 -85.576091 C 152.87937 -91.754765 157.85504 -96.726481 164.03367 -96.726481 z M 295.25437 -96.417888 L 320.29148 -96.417888 C 326.47018 -96.417887 331.44578 -91.442245 331.44578 -85.263591 L 331.44578 -59.808513 C 331.44578 -53.629821 326.47017 -48.658122 320.29148 -48.658122 L 295.25437 -48.658122 C 294.35488 -48.658122 293.48771 -48.775298 292.65086 -48.974528 C 292.271 -49.034328 291.86132 -49.154939 291.42039 -49.343669 C 289.71498 -49.965541 288.20926 -50.986718 287.01219 -52.3007 C 285.47378 -53.572052 283.72033 -55.173081 281.70555 -57.097575 C 267.6636 -70.509691 267.64897 -73.872593 281.56102 -87.663981 C 283.63885 -89.723865 285.43841 -91.430535 287.00828 -92.767497 C 288.09315 -93.959759 289.42608 -94.922604 290.93797 -95.554606 C 291.6235 -95.897236 292.23958 -96.096038 292.78758 -96.136638 C 293.58232 -96.31518 294.40425 -96.417888 295.25437 -96.417888 z M 241.5493 -59.835856 C 235.03877 -59.804856 228.60162 -54.40872 218.30711 -43.630778 C 215.35277 -40.537762 212.89354 -37.8459 210.94187 -35.484294 C 208.9248 -33.6467 207.35746 -31.336625 206.40281 -28.718669 C 206.11309 -28.041769 205.92635 -27.415042 205.83445 -26.83195 C 205.52859 -25.547278 205.34812 -24.212852 205.34812 -22.83195 L 205.34812 15.603597 C 205.34812 25.088517 212.9843 32.724691 222.46922 32.724691 L 261.54344 32.724691 C 271.02836 32.724691 278.66453 25.088517 278.66453 15.603597 L 278.66453 -22.83195 C 278.66453 -24.137072 278.50696 -25.400971 278.23289 -26.621013 C 278.17049 -27.462235 277.86626 -28.406551 277.34031 -29.458903 C 276.37011 -31.779817 274.89515 -33.824749 273.06492 -35.490153 C 271.01251 -37.900057 268.39117 -40.663636 265.22898 -43.853434 C 254.64332 -54.531654 248.05975 -59.866856 241.5493 -59.835856 z M 241.70945 -43.703044 C 245.95051 -43.722744 250.23759 -40.248902 257.13328 -33.292888 C 259.19317 -31.214984 260.89984 -29.415476 262.2368 -27.845622 C 263.42906 -26.76074 264.3919 -25.427816 265.02391 -23.915934 C 265.36653 -23.230422 265.56338 -22.614307 265.60398 -22.066325 C 265.78253 -21.271583 265.88719 -20.44972 265.88719 -19.599528 L 265.88719 5.4375812 C 265.88719 11.616243 260.91151 16.591878 254.73289 16.591878 L 229.27781 16.591878 C 223.09916 16.591878 218.12742 11.616233 218.12742 5.4375812 L 218.12742 -19.599528 C 218.12742 -20.49908 218.24264 -21.366202 218.44187 -22.203044 C 218.50167 -22.582916 218.62425 -22.992553 218.81297 -23.433513 C 219.43486 -25.138897 220.45405 -26.644644 221.76805 -27.841716 C 223.03942 -29.38011 224.64243 -31.133482 226.56687 -33.148356 C 233.27296 -40.1693 237.46843 -43.683344 241.70945 -43.703044 z M 974.88328 -35.204997 C 950.93452 -35.204887 931.51825 -15.790388 931.51805 8.1582844 C 931.51825 32.106956 950.93452 51.521456 974.88328 51.521566 C 998.83194 51.521396 1018.2445 32.106906 1018.2446 8.1582844 C 1018.2445 -15.790338 998.83194 -35.204827 974.88328 -35.204997 z M 97.309062 -31.609294 C 115.74558 34.685975 176.08781 80.581891 244.89891 80.646566 C 268.5889 80.279593 291.87186 74.427942 312.92039 63.550862 C 305.68837 79.628549 301.93896 97.054341 301.91844 114.68367 C 301.96474 145.41711 313.3319 175.05659 333.84812 197.93953 C 324.74154 204.50704 318.75144 214.85764 311.24266 235.61727 C 302.03026 261.08681 290.67159 291.31275 283.11375 310.46297 C 279.78544 318.8962 275.09576 330.9157 272.69383 337.17196 C 266.55328 353.16596 263.26548 359.17458 259.00633 362.18172 C 251.35914 367.58091 238.32151 373.23412 228.98875 375.19735 C 219.06826 377.28411 194.94498 378.67515 186.64109 377.63875 C 143.65904 372.27425 119.48483 364.58834 95.596171 348.69344 C 76.907671 336.25851 63.828798 319.84827 55.031718 297.79696 C 51.407168 288.71133 51.313536 287.8261 51.492656 264.46297 C 51.593856 251.26317 52.361547 232.66222 53.199687 223.12899 C 55.050617 202.0762 63.188313 140.63997 66.797343 120.46297 C 68.240213 112.3964 70.837491 97.696856 72.570781 87.796956 C 76.179861 67.183156 85.778492 20.17963 88.621562 9.1993 C 89.675792 5.127731 92.364431 -7.398635 94.596171 -18.636638 C 95.730443 -24.348276 96.519157 -28.043876 97.309062 -31.609294 z M 1121.6762 -28.589763 C 1153.2826 109.80925 1167.6957 200.76508 1168.2329 266.46297 C 1168.3578 281.74698 1167.9268 285.87187 1165.3774 293.79696 C 1156.1558 322.46264 1137.7344 343.49868 1109.3091 357.8243 C 1096.1205 364.47074 1073.7216 371.66164 1057.6919 374.39657 C 1042.0906 377.05832 1015.6017 378.74637 1006.6411 377.64852 C 989.0982 375.49915 971.7337 369.64598 962.895 362.90438 C 956.345 357.90839 945.06123 332.68635 925.82273 280.03914 C 916.61563 254.84363 901.05863 216.30147 897.94773 210.9786 C 894.89158 205.74913 890.19433 201.01555 884.31883 197.12313 C 904.3527 174.33092 915.41147 145.02902 915.43211 114.68367 C 915.42311 96.625849 911.50183 78.784162 903.93797 62.3868 C 925.76317 74.115573 950.10567 80.380977 974.88133 80.646566 C 1042.5568 80.617466 1102.2115 36.226106 1121.6762 -28.589763 z M 974.88328 -22.4257 C 991.77464 -22.42603 1005.4666 -8.7331073 1005.4673 8.1582844 C 1005.4677 25.050445 991.77544 38.744552 974.88328 38.744222 C 957.99192 38.743512 944.29704 25.049705 944.29734 8.1582844 C 944.29814 -8.7323773 957.99262 -22.42499 974.88328 -22.4257 z M 426.91844 3.0860187 C 488.55334 3.0852624 538.51881 53.050733 538.51805 114.68563 C 538.51705 176.319 488.55181 226.28209 426.91844 226.28133 C 365.28507 226.28209 315.32023 176.319 315.31883 114.68563 C 315.31807 53.050733 365.28354 3.0852624 426.91844 3.0860187 z M 790.43406 3.0860187 C 852.06896 3.0852624 902.03443 53.050733 902.03367 114.68563 C 902.03267 176.319 852.06743 226.28209 790.43406 226.28133 C 728.80069 226.28209 678.83585 176.319 678.83445 114.68563 C 678.83369 53.050733 728.79916 3.0852624 790.43406 3.0860187 z M 426.91844 30.429769 C 380.38789 30.430732 342.66745 68.151194 342.66648 114.68172 C 342.66548 161.2138 380.38636 198.93662 426.91844 198.93758 C 473.45124 198.93769 511.17353 161.21455 511.17234 114.68172 C 511.17137 68.150436 473.44972 30.42966 426.91844 30.429769 z M 790.43406 30.429769 C 743.90354 30.430737 706.18308 68.151198 706.18211 114.68172 C 706.18111 161.21379 743.90202 198.93661 790.43406 198.93758 C 836.9669 198.93769 874.68916 161.21456 874.68797 114.68172 C 874.687 68.150432 836.96537 30.429655 790.43406 30.429769 z M 426.91844 43.830159 C 466.04905 43.829731 497.7713 75.551114 497.77195 114.68172 C 497.77395 153.81386 466.05058 185.53762 426.91844 185.53719 C 387.78706 185.53655 356.06536 153.8131 356.06687 114.68172 C 356.06752 75.551871 387.78859 43.830802 426.91844 43.830159 z M 790.43406 43.830159 C 829.56467 43.829725 861.28693 75.55111 861.28758 114.68172 C 861.28958 153.81386 829.5662 185.53762 790.43406 185.53719 C 751.30269 185.53654 719.58099 153.81309 719.5825 114.68172 C 719.58315 75.551875 751.30421 43.830808 790.43406 43.830159 z M 426.92039 59.435628 C 396.40789 59.434704 371.67162 84.169227 371.67039 114.68172 C 371.66947 145.19575 396.40636 169.93264 426.92039 169.93172 C 457.43365 169.93157 482.16936 145.19498 482.16844 114.68172 C 482.16744 84.169989 457.43213 59.435781 426.92039 59.435628 z M 790.43406 59.435628 C 759.92156 59.434704 735.18529 84.169227 735.18406 114.68172 C 735.18314 145.19575 759.92003 169.93264 790.43406 169.93172 C 820.94732 169.93157 845.68303 145.19498 845.68211 114.68172 C 845.68088 84.169989 820.9458 59.435781 790.43406 59.435628 z M 426.92039 70.156331 C 451.51136 70.156288 471.4467 90.090771 471.44773 114.68172 C 471.44778 139.27345 451.51212 159.20911 426.92039 159.20907 C 402.32789 159.21007 382.39104 139.27422 382.39109 114.68172 C 382.39209 90.090006 402.32866 70.155206 426.92039 70.156331 z M 790.43406 70.156331 C 815.02503 70.156283 834.96038 90.090768 834.96141 114.68172 C 834.96146 139.27346 815.0258 159.20912 790.43406 159.20907 C 765.8416 159.21007 745.90472 139.27421 745.90477 114.68172 C 745.90577 90.09001 765.84236 70.155211 790.43406 70.156331 z M 609.88914 81.29305 A 32.188541 32.188541 0 0 0 577.70164 113.4825 A 32.188541 32.188541 0 0 0 609.88914 145.67 A 32.188541 32.188541 0 0 0 642.07859 113.4825 A 32.188541 32.188541 0 0 0 609.88914 81.29305 z M 609.88914 92.984456 A 20.497421 20.497421 0 0 1 630.38719 113.4825 A 20.497421 20.497421 0 0 1 609.88914 133.9786 A 20.497421 20.497421 0 0 1 589.39109 113.4825 A 20.497421 20.497421 0 0 1 609.88914 92.984456 z M 1164.8911 331.79696 C 1166.382 331.79696 1164.718 343.2573 1161.2739 356.70711 C 1158.6335 367.01834 1154.6761 377.71627 1149.8227 387.66414 C 1143.1688 401.30246 1141.1493 404.11357 1130.1899 414.99813 C 1116.2512 428.84156 1108.1187 434.06433 1091.2251 440.01961 C 1080.5413 443.78588 1077.4472 444.26762 1061.3091 444.66414 C 1040.7529 445.16918 1033.6933 443.66957 1016.2427 435.08992 C 1007.9388 431.00758 1003.4237 427.45613 992.64109 416.52938 C 983.98139 407.75382 977.7172 400.0442 974.77 394.53328 C 969.5651 384.80082 967.76958 385.23339 991.97508 390.39461 C 1028.6717 398.21927 1081.5238 389.44269 1120.0708 369.12508 C 1132.0377 362.81752 1136.1012 359.70601 1149.2251 346.79696 C 1157.6122 338.54696 1164.6616 331.79696 1164.8911 331.79696 z M 55.797343 333.61336 C 57.190687 334.09699 60.15973 337.06362 66.098125 342.99813 C 80.624935 357.51525 88.167642 363.18173 102.73484 370.52157 C 143.52211 391.07243 200.046 398.74469 236.98094 388.74422 C 243.76745 386.90668 249.58334 385.8296 249.90477 386.34969 C 252.22833 390.10944 227.70964 419.85543 214.85398 428.87313 C 205.73625 435.26883 191.82283 441.41715 181.41844 443.64852 C 174.86887 445.05315 151.1459 445.408 143.97508 444.20907 C 142.14175 443.90252 136.74165 442.40916 131.97508 440.89071 C 103.6313 431.86106 79.844218 410.91585 68.031718 384.58797 C 62.621558 372.52971 55.85304 349.00611 54.95164 339.12899 C 54.58661 335.12899 54.404009 333.12973 55.797343 333.61336 z " /></g></svg>
