<svg width="1046.85" height="1217.17" xmlns="http://www.w3.org/2000/svg" xmlns:xlink="http://www.w3.org/1999/xlink" id="svg1" xml:space="preserve" overflow="hidden"><defs id="defs1"></defs><g id="g1" transform="translate(1815.76 4340)"><path d="M-1600.71-4340C-1620.92-4340-1637.18-4323.74-1637.18-4303.54L-1637.18-4271.12C-1637.18-4268.58-1636.92-4266.1-1636.43-4263.71L-1706.12-4263.71C-1766.43-4263.71-1815.76-4214.38-1815.76-4154.07L-1815.76-3294.9C-1815.76-3234.6-1766.43-3185.26-1706.12-3185.26L-1314.98-3185.26C-1254.67-3185.26-1205.34-3234.6-1205.34-3294.9L-1205.34-4154.07C-1205.34-4214.38-1254.67-4263.71-1314.98-4263.71L-1384.67-4263.71C-1384.18-4266.1-1383.92-4268.58-1383.92-4271.12L-1383.92-4303.54C-1383.92-4323.74-1400.19-4340-1420.39-4340ZM-1706.12-4213.71-1314.98-4213.71C-1281.51-4213.71-1255.34-4187.54-1255.34-4154.07L-1255.34-3294.9C-1255.34-3261.43-1281.51-3235.26-1314.98-3235.26L-1706.12-3235.26C-1739.6-3235.26-1765.76-3261.43-1765.76-3294.9L-1765.76-4154.07C-1765.76-4187.54-1739.6-4213.71-1706.12-4213.71Z" id="rect12" color="#000000" stroke-linecap="round" stroke-linejoin="round" fill="#FFFFFF"/><rect x="-1740.51" y="-4057.45" rx="50" ry="50" width="459.918" height="249.207" id="rect14-78" stroke-width="25.1151" stroke-linecap="round" stroke-linejoin="round" fill="#F39327"/><rect x="-1740.51" y="-3787.23" rx="50" ry="50" width="459.918" height="249.207" id="rect14-78-7" stroke-width="25.1151" stroke-linecap="round" stroke-linejoin="round" fill="#F39327"/><rect x="-1740.51" y="-3517.01" rx="50" ry="50" width="459.918" height="249.207" id="rect14-78-4" stroke-width="25.1151" stroke-linecap="round" stroke-linejoin="round" fill="#F39327"/><path d="M-1215.71-3965.58C-1215.71-3965.58-1380.63-3765.37-1639.98-3928.81-1644.11-3238.24-1215.71-3145.33-1215.71-3145.33-1215.71-3145.33-787.313-3238.24-791.449-3928.81-1050.79-3765.37-1215.71-3965.58-1215.71-3965.58Z" id="path16" stroke="#FFFFFF" stroke-width="45" stroke-linecap="round" stroke-linejoin="round" fill="#F39327"/><g id="g2" stroke-width="38.7216" fill="#FFFFFF" transform="matrix(0.516508 0 0 0.516508 -620.605 -2947)"><path d="M-1060.35-1616.67C-1065.96-1617.5-1071.55-1615.1-1074.82-1610.47L-1412.04-1131.81C-1416.81-1125.04-1415.18-1115.68-1408.41-1110.91-1405.88-1109.13-1402.87-1108.17-1399.78-1108.17L-1175.97-1108.17C-1175.03-1108.3-1174.1-1108.51-1173.19-1108.8L-1256.39-757.668C-1258.3-749.605-1253.31-741.523-1245.25-739.617-1244.83-739.519-1244.42-739.439-1244-739.377-1238.39-738.546-1232.8-740.941-1229.53-745.57L-892.312-1224.23C-887.542-1231-889.166-1240.36-895.94-1245.13-898.468-1246.91-901.483-1247.87-904.574-1247.87L-1128.38-1247.87C-1129.32-1247.75-1130.25-1247.54-1131.16-1247.24L-1047.96-1598.37C-1046.05-1606.44-1051.04-1614.52-1059.11-1616.43-1059.52-1616.52-1059.94-1616.6-1060.35-1616.67Z" id="path4-9-2-5" stroke="#FFCB58" stroke-linecap="round" stroke-linejoin="round"/></g></g></svg>