<svg width="294.846" height="342.818" xmlns="http://www.w3.org/2000/svg" xmlns:xlink="http://www.w3.org/1999/xlink" id="svg1" xml:space="preserve" overflow="hidden"><defs id="defs1"></defs><g id="g1" transform="translate(1439.76 3902.83)"><path d="M-1379.2-3902.83C-1384.89-3902.83-1389.47-3898.25-1389.47-3892.56L-1389.47-3883.43C-1389.47-3882.71-1389.39-3882.01-1389.26-3881.34L-1408.88-3881.34C-1425.87-3881.34-1439.76-3867.44-1439.76-3850.46L-1439.76-3608.47C-1439.76-3591.49-1425.87-3577.59-1408.88-3577.59L-1298.72-3577.59C-1281.73-3577.59-1267.84-3591.49-1267.84-3608.47L-1267.84-3850.46C-1267.84-3867.44-1281.73-3881.34-1298.72-3881.34L-1318.35-3881.34C-1318.21-3882.01-1318.14-3882.71-1318.14-3883.43L-1318.14-3892.56C-1318.14-3898.25-1322.72-3902.83-1328.41-3902.83ZM-1408.88-3867.26-1298.72-3867.26C-1289.29-3867.26-1281.92-3859.89-1281.92-3850.46L-1281.92-3608.47C-1281.92-3599.05-1289.29-3591.68-1298.72-3591.68L-1408.88-3591.68C-1418.31-3591.68-1425.68-3599.05-1425.68-3608.47L-1425.68-3850.46C-1425.68-3859.89-1418.31-3867.26-1408.88-3867.26Z" id="rect12" color="#000000" stroke-width="0.281651" stroke-linecap="round" stroke-linejoin="round" fill="#FFFFFF"/><rect x="-1418.57" y="-3823.25" rx="14.0826" ry="14.0826" width="129.537" height="70.1895" id="rect14-78" stroke-width="7.0737" stroke-linecap="round" stroke-linejoin="round" fill="#2C64FF"/><rect x="-1418.57" y="-3747.14" rx="14.0826" ry="14.0826" width="129.537" height="70.1895" id="rect14-78-7" stroke-width="7.0737" stroke-linecap="round" stroke-linejoin="round" fill="#2C64FF"/><rect x="-1418.57" y="-3671.03" rx="14.0826" ry="14.0826" width="129.537" height="70.1895" id="rect14-78-4" stroke-width="7.0737" stroke-linecap="round" stroke-linejoin="round" fill="#2C64FF"/><path d="M-1270.76-3797.37C-1270.76-3797.37-1317.21-3740.98-1390.25-3787.01-1391.42-3592.51-1270.76-3566.35-1270.76-3566.35-1270.76-3566.35-1150.1-3592.51-1151.26-3787.01-1224.31-3740.98-1270.76-3797.37-1270.76-3797.37Z" id="path16" stroke="#FFFFFF" stroke-width="12.6743" stroke-linecap="round" stroke-linejoin="round" fill="#2C64FF"/><g id="g2" stroke-width="38.7216" fill="#FFFFFF" transform="matrix(0.130221 0 0 0.154021 -1120.72 -3500.42)"><path d="M-1060.35-1616.67C-1065.96-1617.5-1071.55-1615.1-1074.82-1610.47L-1412.04-1131.81C-1416.81-1125.04-1415.18-1115.68-1408.41-1110.91-1405.88-1109.13-1402.87-1108.17-1399.78-1108.17L-1175.97-1108.17C-1175.03-1108.3-1174.1-1108.51-1173.19-1108.8L-1256.39-757.668C-1258.3-749.605-1253.31-741.523-1245.25-739.617-1244.83-739.519-1244.42-739.439-1244-739.377-1238.39-738.546-1232.8-740.941-1229.53-745.57L-892.312-1224.23C-887.542-1231-889.166-1240.36-895.94-1245.13-898.468-1246.91-901.483-1247.87-904.574-1247.87L-1128.38-1247.87C-1129.32-1247.75-1130.25-1247.54-1131.16-1247.24L-1047.96-1598.37C-1046.05-1606.44-1051.04-1614.52-1059.11-1616.43-1059.52-1616.52-1059.94-1616.6-1060.35-1616.67Z" id="path4-9-2-5" stroke-linecap="round" stroke-linejoin="round"/></g></g></svg>