<svg width="1169.04" height="791.765" xmlns="http://www.w3.org/2000/svg" xmlns:xlink="http://www.w3.org/1999/xlink" id="svg1" xml:space="preserve" overflow="hidden"><style>
.MsftOfcResponsive_Fill_cdcdcd {
 fill:#CDCDCD; 
}
</style>
<defs id="defs1"></defs><g id="g1" transform="translate(-22.9398 313.982)"><path d="M942.88-313.817C906.451-311.896 886.316-301.818 880.766-282.728 878.2-273.9 874.655-271.011 863.895-268.983 857.697-267.815 791.297-267.346 606.212-267.163 370.948-266.93 356.306-267.049 346.731-269.298 335.346-271.971 332.203-274.52 329.784-283.034 327.747-290.203 321.477-298.709 315.136-302.905 307.636-307.868 286.811-312.696 268.516-313.714 248.954-314.802 228.532-312.027 209.813-305.735 184.992-297.393 176.05-290.806 169.282-275.88 167.144-271.164 162.827-264.518 159.69-261.11 156.553-257.703 150.488-248.316 146.214-240.249 141.939-232.182 134.747-218.982 130.229-210.915 119.841-192.365 111.738-176.378 106.196-163.495 99.0708-146.93 81.0975-81.2595 70.4579-32.9151 68.6019-24.4818 65.2694-9.48294 63.0516 0.416959 52.4202 47.8737 37.4689 128.831 32.8876 163.751 19.6024 265.014 19.622 324.038 32.9579 376.759 45.927 428.03 83.5842 464.531 135.018 475.688 154.358 479.884 183.237 477.609 202.458 470.374 234.529 458.302 265.225 424.976 281.604 384.444 283.833 378.93 286.819 371.717 288.241 368.417 292.311 358.97 308.024 318.626 314.206 301.751 339.044 233.944 340.954 229.553 347.266 225.704 349.047 224.619 350.647 224.007 352.274 223.659 365.685 233.16 380.838 239.922 396.866 243.56L396.874 243.562C398.242 243.883 399.615 244.181 400.993 244.456L400.982 244.456C408.703 246.03 416.555 246.87 424.435 246.966L424.489 246.97 424.53 246.966C433.353 246.858 442.14 245.816 450.743 243.858L450.733 243.858C452.211 243.565 453.683 243.246 455.149 242.899L455.151 242.897C473.47 238.292 490.508 229.595 504.983 217.46 518.866 215.795 544.445 215.751 607.434 215.751 666.297 215.751 692.385 215.808 707.286 217.294 721.779 229.495 738.857 238.242 757.227 242.874L757.231 242.874C758.717 243.226 760.209 243.551 761.706 243.849L761.718 243.851C766.024 244.832 770.377 245.585 774.757 246.105 779.151 246.627 783.572 246.918 788.003 246.972L787.962 246.966 788.003 246.97 788.058 246.966 788.003 246.972C795.929 246.876 803.828 246.028 811.593 244.437L811.604 244.435C812.956 244.164 814.303 243.871 815.645 243.556L815.653 243.554C831.748 239.895 846.959 233.085 860.407 223.517 862.853 223.564 865.019 224.189 867.491 225.718 872.966 229.101 876.983 236.679 885.525 259.751 889.326 270.017 894.556 283.817 897.15 290.417 899.743 297.017 905.323 311.417 909.548 322.417 937.154 394.29 947.264 414.592 966.454 436.681 984.465 457.412 1005.2 469.643 1032.7 475.757 1046.71 478.87 1073.49 477.953 1088.88 473.833 1111.32 467.827 1131.2 456.005 1147.64 438.897 1165.39 420.429 1174.53 403.679 1182.26 375.468 1191.51 341.727 1194.08 300.524 1190.31 246.417 1187.49 206.033 1180.1 149.298 1172.07 106.417 1154.44 12.2808 1142.07-41.8561 1127.12-90.2491 1124.29-99.4156 1118.86-116.989 1115.06-129.3 1104.12-164.711 1098.23-178.029 1076.77-215.815 1070.66-226.577 1063.93-239.177 1061.82-243.815 1059.7-248.454 1054.61-256.328 1050.51-261.314 1046.3-266.428 1042.1-273.24 1040.87-276.942 1038.09-285.307 1029.45-293.952 1018.48-299.347 998.99-308.928 966.842-315.081 942.88-313.817ZM950.811-287.808C959.847-287.805 968.905-287.377 971.546-286.53 974.416-285.609 968.581-285.244 950.88-285.233 932.751-285.223 927.272-285.569 930.212-286.544 932.762-287.389 941.776-287.811 950.811-287.808ZM261.268-287.761C270.289-287.77 279.386-287.381 282.11-286.585 284.633-285.848 277.343-285.406 261.442-285.333 243.534-285.251 237.963-285.58 240.88-286.544 243.302-287.345 252.248-287.752 261.268-287.761ZM263.434-262.583C287.682-262.817 308.371-258.893 324.263-250.89 339.254-243.34 346.7-242.054 380.88-241.103 393.074-240.763 399.801-240.48 404.296-240.112 403.91-238.182 403.702-236.185 403.702-234.138L403.702-35.6299C403.702-18.9502 417.13-5.52246 433.809-5.52246L781.112-5.52246C797.792-5.52246 811.22-18.9502 811.22-35.6299L811.22-234.138C811.22-236.265 810.997-238.337 810.581-240.337 814.933-240.767 821.275-241.015 833.124-241.296 867.008-242.101 871.321-242.881 889.825-251.552 909.334-260.694 914.425-261.586 946.88-261.556 972.767-261.532 977.355-261.171 994.212-257.833 1025.33-251.671 1029.36-249.623 1036.17-236.519 1044.16-221.137 1056.06-199.817 1062.22-189.679 1036.1-208.562 1004.69-218.733 972.452-218.745 887.765-218.745 819.112-150.092 819.112-65.4053 819.282-39.9055 825.81-14.8506 838.102 7.49118 827.279 2.74749 815.843-0.30323 804.181-1.83499L804.179-1.83499C798.867-2.53257 793.523-3.0092 788.141-3.01859 788.096-3.01864 788.05-3.02836 788.005-3.02836L788.061-3.0225 788.005-3.02641 787.968-3.02446 788.001-3.02837C787.965-3.02836 787.929-3.02059 787.893-3.02056 718.908-2.96054 663.005 52.9766 663.003 121.972 663.007 145.889 669.872 169.304 682.784 189.436 667.009 189.648 644.574 189.751 606.88 189.751 574.348 189.751 548.623 189.564 529.778 189.31 542.642 169.206 549.482 145.839 549.489 121.972 549.489 88.8203 536.319 57.0266 512.878 33.5849L512.858 33.5673C505.384 26.166 497.006 19.7376 487.923 14.4345 487.332 14.0735 486.738 13.7174 486.141 13.3662 472.324 5.49386 457.168 0.412168 441.52-1.77054L441.518-1.77249C435.971-2.54621 430.368-2.98955 424.731-3.01077 424.65-3.01093 424.57-3.02835 424.489-3.02835L424.522-3.02444 424.489-3.02639 424.427-3.02248 424.489-3.02834C424.441-3.02834 424.394-3.01863 424.346-3.01857 408.211-2.91267 392.247 0.313035 377.339 6.48729 389.29-15.6025 395.633-40.2901 395.809-65.4053 395.809-150.092 327.156-218.745 242.47-218.745 206.988-218.66 172.634-206.273 145.263-183.694 147.01-187.28 149.21-191.615 151.864-196.528 157.724-207.374 165.692-222.471 169.571-230.075 175.578-241.852 177.526-244.474 182.706-247.759 190.07-252.429 193.179-253.347 216.212-257.655 233.055-260.805 248.886-262.443 263.434-262.583ZM440.237-239.245 774.684-239.245C781.075-239.245 786.22-234.1 786.22-227.71L786.22-42.0576C786.22-35.6671 781.075-30.5205 774.684-30.5205L440.237-30.5205C433.847-30.5205 428.702-35.6671 428.702-42.0576L428.702-227.71C428.702-234.101 433.847-239.245 440.237-239.245ZM239.733-200.856C314.541-200.857 375.185-140.213 375.184-65.4053 375.185 9.40218 314.541 70.0461 239.733 70.0459 164.926 70.0461 104.282 9.40218 104.282-65.4053 104.282-140.213 164.926-200.857 239.733-200.856ZM972.454-200.856C1047.26-200.857 1107.9-140.212 1107.9-65.4053 1107.9 9.40188 1047.26 70.0461 972.454 70.0459 897.647 70.0461 837.001 9.40189 837.001-65.4053 837.001-140.213 897.647-200.857 972.454-200.856ZM972.454-189.62C948.505-189.62 929.089-170.206 929.089-146.257 929.089-122.308 948.505-102.894 972.454-102.894 996.403-102.894 1015.82-122.308 1015.82-146.257 1015.82-170.206 996.403-189.62 972.454-189.62ZM972.454-176.841C989.345-176.841 1003.04-163.148 1003.04-146.257 1003.04-129.365 989.346-115.671 972.454-115.671 955.563-115.672 941.868-129.365 941.868-146.257 941.869-163.147 955.563-176.84 972.454-176.841ZM220.352-170.821C210.867-170.821 203.231-163.185 203.231-153.7L203.231-115.265C203.231-113.96 203.389-112.696 203.663-111.476 203.725-110.634 204.03-109.69 204.556-108.638 205.526-106.317 207.001-104.272 208.831-102.606 210.883-100.197 213.505-97.433 216.667-94.2432 237.838-72.8867 243-72.9099 263.589-94.4658 266.543-97.5588 269.002-100.251 270.954-102.612 272.971-104.45 274.538-106.762 275.493-109.38 275.783-110.057 275.969-110.684 276.061-111.267 276.367-112.551 276.548-113.884 276.548-115.265L276.548-153.7C276.548-163.185 268.912-170.821 259.427-170.821ZM227.163-154.688 252.618-154.688C258.797-154.688 263.768-149.715 263.768-143.536L263.768-118.497C263.768-117.598 263.653-116.73 263.454-115.894 263.394-115.514 263.272-115.106 263.083-114.665 262.461-112.96 261.44-111.452 260.126-110.255 258.854-108.716 257.253-106.963 255.329-104.948 241.917-90.9063 238.554-90.8937 224.763-104.806 222.703-106.884 220.996-108.681 219.659-110.251 218.467-111.336 217.504-112.669 216.872-114.181 216.529-114.866 216.331-115.482 216.29-116.03 216.111-116.825 216.009-117.647 216.009-118.497L216.009-143.536C216.009-149.715 220.984-154.688 227.163-154.688ZM891.602-108.769C867.653-108.77 848.237-89.3547 848.237-65.4053 848.237-41.4559 867.653-22.041 891.602-22.042 915.55-22.0432 934.964-41.4574 934.964-65.4053 934.964-89.3532 915.55-108.768 891.602-108.769ZM1053.31-108.769C1029.36-108.77 1009.94-89.3547 1009.94-65.4053 1009.94-41.4558 1029.36-22.041 1053.31-22.042 1077.25-22.0432 1096.67-41.4574 1096.67-65.4053 1096.67-89.3532 1077.25-108.768 1053.31-108.769ZM151.438-102.218C141.953-102.218 134.317-94.5816 134.317-85.0967L134.317-46.0225C134.317-36.5375 141.953-28.9014 151.438-28.9014L189.874-28.9014C191.179-28.9014 192.443-29.0589 193.663-29.333 194.504-29.3954 195.448-29.6996 196.501-30.2256 198.822-31.1958 200.867-32.6708 202.532-34.501 204.942-36.5534 207.706-39.1748 210.895-42.3369 232.252-63.5082 232.229-68.6698 210.673-89.2588 207.58-92.2131 204.888-94.6724 202.526-96.624 200.689-98.6412 198.377-100.208 195.759-101.163 195.082-101.453 194.455-101.64 193.872-101.731 192.587-102.037 191.255-102.218 189.874-102.218ZM289.593-101.907C288.287-101.907 287.024-101.75 285.804-101.476 284.962-101.413 284.018-101.111 282.966-100.585 280.645-99.6147 278.6-98.1379 276.934-96.3076 274.525-94.2552 271.761-91.6339 268.571-88.4717 247.215-67.3004 247.238-62.1388 268.794-41.5498 271.887-38.5955 274.579-36.1362 276.94-34.1846 278.778-32.1674 281.088-30.6001 283.706-29.6455 284.383-29.3558 285.01-29.1691 285.593-29.0772 286.877-28.7713 288.212-28.5928 289.593-28.5928L328.028-28.5928C337.513-28.5928 345.149-36.227 345.149-45.7119L345.149-84.7861C345.149-94.2711 337.513-101.907 328.028-101.907ZM891.602-95.9893C908.493-95.9885 922.186-82.2959 922.186-65.4053 922.187-48.5139 908.494-34.8201 891.602-34.8193 874.71-34.819 861.016-48.5131 861.016-65.4053 861.017-82.2967 874.711-95.9896 891.602-95.9893ZM1053.31-95.9893C1070.2-95.9885 1083.89-82.2959 1083.89-65.4053 1083.89-48.5139 1070.2-34.8201 1053.31-34.8193 1036.41-34.819 1022.72-48.5131 1022.72-65.4053 1022.72-82.2967 1036.41-95.9896 1053.31-95.9893ZM161.604-89.4385 186.641-89.4385C187.541-89.4385 188.408-89.3233 189.245-89.124 189.625-89.0642 190.035-88.9436 190.475-88.7549 192.181-88.133 193.687-87.1118 194.884-85.7979 196.422-84.5265 198.175-82.9235 200.19-80.999 214.232-67.5869 214.247-64.224 200.335-50.4326 198.257-48.3727 196.457-46.6661 194.888-45.3291 193.803-44.1369 192.47-43.174 190.958-42.542 190.272-42.1994 189.656-42.0025 189.108-41.9619 188.314-41.7834 187.492-41.6807 186.641-41.6807L161.604-41.6807C155.426-41.6807 150.45-46.6544 150.45-52.833L150.45-78.2881C150.45-84.4668 155.426-89.4385 161.604-89.4385ZM292.825-89.1299 317.862-89.1299C324.041-89.1299 329.016-84.1542 329.016-77.9756L329.016-52.5205C329.016-46.3418 324.041-41.3701 317.862-41.3701L292.825-41.3701C291.926-41.3701 291.058-41.4873 290.222-41.6865 289.842-41.7463 289.432-41.8669 288.991-42.0557 287.286-42.6775 285.78-43.6987 284.583-45.0127 283.044-46.284 281.291-47.8851 279.276-49.8096 265.234-63.2217 265.22-66.5846 279.132-80.376 281.21-82.4359 283.009-84.1425 284.579-85.4795 285.664-86.6718 286.997-87.6346 288.509-88.2666 289.194-88.6092 289.81-88.808 290.358-88.8486 291.153-89.0272 291.975-89.1299 292.825-89.1299ZM239.12-52.5479C232.609-52.5169 226.172-47.1207 215.878-36.3428 212.923-33.2498 210.464-30.5579 208.513-28.1963 206.495-26.3587 204.928-24.0486 203.973-21.4307 203.684-20.7538 203.497-20.127 203.405-19.5439 203.099-18.2593 202.919-16.9249 202.919-15.5439L202.919 22.8916C202.919 32.3765 210.555 40.0127 220.04 40.0127L259.114 40.0127C268.599 40.0127 276.235 32.3765 276.235 22.8916L276.235-15.5439C276.235-16.8491 276.078-18.113 275.804-19.333 275.741-20.1742 275.437-21.1185 274.911-22.1709 273.941-24.4918 272.466-26.5367 270.636-28.2022 268.583-30.6121 265.962-33.3756 262.8-36.5654 252.214-47.2437 245.63-52.5789 239.12-52.5479ZM239.28-36.415C243.521-36.4347 247.808-32.9609 254.704-26.0049 256.764-23.927 258.471-22.1275 259.807-20.5576 261-19.4727 261.963-18.1398 262.595-16.6279 262.937-15.9424 263.134-15.3263 263.175-14.7783 263.353-13.9836 263.458-13.1617 263.458-12.3115L263.458 12.7256C263.458 18.9042 258.482 23.8799 252.304 23.8799L226.848 23.8799C220.67 23.8799 215.698 18.9042 215.698 12.7256L215.698-12.3115C215.698-13.2111 215.813-14.0782 216.013-14.915 216.072-15.2949 216.195-15.7046 216.384-16.1455 217.006-17.8509 218.025-19.3566 219.339-20.5537 220.61-22.0921 222.213-23.8455 224.138-25.8604 230.844-32.8813 235.039-36.3953 239.28-36.415ZM972.454-27.917C948.505-27.9169 929.089-8.50239 929.089 15.4463 929.089 39.395 948.505 58.8095 972.454 58.8096 996.403 58.8094 1015.82 39.3949 1015.82 15.4463 1015.82-8.50234 996.403-27.9168 972.454-27.917ZM94.8797-24.3213C113.316 41.9739 173.658 87.8699 242.47 87.9345 266.16 87.5676 289.443 81.7159 310.491 70.8388 303.259 86.9165 299.51 104.342 299.489 121.972 299.535 152.705 310.903 182.345 331.419 205.227 322.312 211.795 316.322 222.146 308.813 242.905 299.601 268.375 288.242 298.601 280.684 317.751 277.356 326.184 272.666 338.204 270.264 344.46 264.124 360.454 260.836 366.463 256.577 369.47 248.93 374.869 235.892 380.522 226.559 382.485 216.639 384.572 192.516 385.963 184.212 384.927 141.23 379.562 117.056 371.876 93.1668 355.981 74.4783 343.546 61.3995 327.136 52.6024 305.085 48.9778 295.999 48.8842 295.114 49.0633 271.751 49.1645 258.551 49.9322 239.95 50.7704 230.417 52.6213 209.364 60.759 147.928 64.368 127.751 65.8109 119.684 68.4082 104.985 70.1415 95.0849 73.7505 74.4711 83.3492 27.4676 86.1922 16.4873 87.2465 12.4157 89.9351-0.110663 92.1668-11.3487 93.3011-17.0603 94.0898-20.7559 94.8797-24.3213ZM1119.25-21.3018C1150.85 117.097 1165.27 208.053 1165.8 273.751 1165.93 289.035 1165.5 293.16 1162.95 301.085 1153.73 329.751 1135.31 350.787 1106.88 365.112 1093.69 371.759 1071.29 378.95 1055.26 381.685 1039.66 384.346 1013.17 386.034 1004.21 384.936 986.669 382.787 969.304 376.934 960.466 370.192 953.916 365.196 942.632 339.974 923.393 287.327 914.186 262.132 898.629 223.589 895.518 218.267 892.462 213.037 887.765 208.304 881.89 204.411 901.923 181.619 912.982 152.317 913.003 121.972 912.994 103.914 909.073 86.0721 901.509 69.6748 923.334 81.4035 947.676 87.6689 972.452 87.9345 1040.13 87.9054 1099.78 43.5141 1119.25-21.3018ZM972.454-15.1377C989.345-15.1381 1003.04-1.44514 1003.04 15.4463 1003.04 32.3384 989.346 46.0325 972.454 46.0322 955.563 46.0315 941.868 32.3377 941.868 15.4463 941.869-1.44441 955.563-15.137 972.454-15.1377ZM424.489 10.374C486.124 10.3732 536.089 60.3387 536.089 121.974 536.088 183.607 486.122 233.57 424.489 233.569 362.856 233.57 312.891 183.607 312.889 121.974 312.889 60.3387 362.854 10.3732 424.489 10.374ZM788.005 10.374C849.64 10.3732 899.605 60.3387 899.604 121.974 899.603 183.607 849.638 233.57 788.005 233.569 726.371 233.57 676.407 183.607 676.405 121.974 676.404 60.3387 726.37 10.3732 788.005 10.374ZM424.489 37.7177C377.959 37.7187 340.238 75.4392 340.237 121.97 340.236 168.502 377.957 206.225 424.489 206.226 471.022 206.226 508.744 168.503 508.743 121.97 508.742 75.4384 471.02 37.7176 424.489 37.7177ZM788.005 37.7177C741.474 37.7187 703.754 75.4392 703.753 121.97 703.752 168.502 741.473 206.225 788.005 206.226 834.538 206.226 872.26 168.503 872.259 121.97 872.258 75.4384 834.536 37.7176 788.005 37.7177ZM424.489 51.1181C463.62 51.1177 495.342 82.8391 495.343 121.97 495.345 161.102 463.621 192.826 424.489 192.825 385.358 192.825 353.636 161.101 353.638 121.97 353.638 82.8398 385.359 51.1188 424.489 51.1181ZM788.005 51.1181C827.135 51.1177 858.858 82.8391 858.858 121.97 858.86 161.102 827.137 192.826 788.005 192.825 748.873 192.825 717.152 161.101 717.153 121.97 717.154 82.8398 748.875 51.1188 788.005 51.1181ZM424.491 66.7236C393.979 66.7227 369.242 91.4572 369.241 121.97 369.24 152.484 393.977 177.221 424.491 177.22 455.004 177.22 479.74 152.483 479.739 121.97 479.738 91.458 455.003 66.7238 424.491 66.7236ZM788.005 66.7236C757.492 66.7227 732.756 91.4572 732.755 121.97 732.754 152.484 757.491 177.221 788.005 177.22 818.518 177.22 843.254 152.483 843.253 121.97 843.252 91.458 818.516 66.7238 788.005 66.7236ZM424.491 77.4443C449.082 77.4443 469.017 97.3787 469.018 121.97 469.018 146.561 449.083 166.497 424.491 166.497 399.899 166.498 379.962 146.562 379.962 121.97 379.963 97.378 399.899 77.4432 424.491 77.4443ZM788.005 77.4443C812.596 77.4443 832.531 97.3787 832.532 121.97 832.532 146.561 812.596 166.497 788.005 166.497 763.412 166.498 743.475 146.562 743.475 121.97 743.476 97.378 763.413 77.4432 788.005 77.4443ZM607.46 88.581C589.683 88.5816 575.272 102.993 575.272 120.77 575.273 138.547 589.683 152.957 607.46 152.958 625.237 152.958 639.649 138.548 639.649 120.77 639.65 102.993 625.239 88.5815 607.462 88.581 607.461 88.581 607.46 88.581 607.46 88.581ZM607.46 100.272C618.78 100.272 627.958 109.449 627.958 120.769 627.958 120.77 627.958 120.77 627.958 120.77 627.957 132.091 618.78 141.267 607.46 141.267 596.14 141.267 586.963 132.091 586.962 120.77 586.961 109.45 596.138 100.273 607.459 100.272 607.459 100.272 607.459 100.272 607.46 100.272ZM1162.46 339.085C1163.95 339.085 1162.29 350.545 1158.84 363.995 1156.2 374.306 1152.25 385.004 1147.39 394.952 1140.74 408.59 1138.72 411.402 1127.76 422.286 1113.82 436.13 1105.69 441.352 1088.8 447.308 1078.11 451.074 1075.02 451.556 1058.88 451.952 1038.32 452.457 1031.26 450.958 1013.81 442.378 1005.51 438.296 1000.99 434.744 990.212 423.817 981.552 415.042 975.288 407.332 972.341 401.821 967.136 392.089 965.34 392.521 989.546 397.683 1026.24 405.507 1079.09 396.731 1117.64 376.413 1129.61 370.105 1133.67 366.994 1146.8 354.085 1155.18 345.835 1162.23 339.085 1162.46 339.085ZM53.368 340.901C54.7614 341.385 57.7304 344.352 63.6688 350.286 78.1956 364.803 85.7383 370.47 100.306 377.81 141.093 398.36 197.617 406.033 234.552 396.032 241.338 394.195 247.154 393.118 247.475 393.638 249.799 397.397 225.28 427.143 212.425 436.161 203.307 442.557 189.394 448.705 178.989 450.936 172.44 452.341 148.717 452.696 141.546 451.497 139.712 451.19 134.312 449.697 129.546 448.179 101.202 439.149 77.4149 418.204 65.6024 391.876 60.1922 379.818 53.4237 356.294 52.5223 346.417 52.1573 342.417 51.9747 340.418 53.368 340.901Z" id="path1" class="MsftOfcResponsive_Fill_cdcdcd" fill="#CDCDCD"/></g></svg>