<svg width="332" height="332" xmlns="http://www.w3.org/2000/svg" xmlns:xlink="http://www.w3.org/1999/xlink" id="svg1" xml:space="preserve" overflow="hidden"><defs id="defs1"></defs><g id="g1" transform="translate(647.619 3550.15)"><g id="g180" stroke-width="1.5"><path d="M-398.64-3527.88-477.492-3391.3-481.619-3384.15-474.472-3388.28-337.898-3467.13C-352.465-3492.36-373.414-3513.31-398.64-3527.88Z" id="path180" fill="#F8BA15"/><path d="M-337.898-3467.13-474.472-3388.28-481.619-3384.15-473.32-3384.15-315.619-3384.15C-315.634-3413.29-323.318-3441.91-337.898-3467.13Z" id="path179" fill="#F8991D"/><path d="M-481.619-3384.15-474.431-3380-338.185-3301.34C-323.533-3326.49-315.751-3355.05-315.619-3384.15L-473.32-3384.15ZM-473.781-3381.43C-473.788-3381.41-473.796-3381.38-473.804-3381.36-473.796-3381.38-473.789-3381.41-473.781-3381.43Z" id="path178" fill="#EF5522"/><path d="M-481.619-3384.15-477.47-3376.97-398.806-3240.72C-373.639-3255.27-352.735-3276.17-338.185-3301.34L-474.431-3380Z" id="path177" fill="#EC3323"/><path d="M-481.619-3384.15-481.619-3375.85-481.619-3218.15C-452.514-3218.29-423.955-3226.07-398.806-3240.72L-477.47-3376.97Z" id="path176" fill="#A61D4B"/><path d="M-481.619-3384.15-485.769-3376.97-564.431-3240.72C-539.283-3226.07-510.724-3218.29-481.619-3218.15L-481.619-3375.85Z" id="path175" fill="#7C3692"/><path d="M-481.619-3384.15-488.808-3380-625.054-3301.34C-610.503-3276.17-589.599-3255.27-564.431-3240.72L-485.769-3376.97Z" id="path174" fill="#462E90"/><path d="M-647.619-3384.15C-647.487-3355.05-639.706-3326.49-625.054-3301.34L-488.808-3380-481.619-3384.15-489.919-3384.15Z" id="path173" fill="#3E5CA9"/><path d="M-564.431-3527.59C-589.599-3513.04-610.504-3492.13-625.054-3466.97L-488.808-3388.3-481.619-3384.15-485.769-3391.34Z" id="path172" fill="#64AD45"/><path d="M-625.054-3466.97C-639.706-3441.82-647.487-3413.26-647.619-3384.15L-489.919-3384.15-481.619-3384.15-488.808-3388.3Z" id="path171" fill="#0791CC"/><path d="M-481.619-3550.15C-510.724-3550.02-539.283-3542.24-564.431-3527.59L-485.769-3391.34-481.619-3384.15-481.619-3392.45Z" id="path160" fill="#CDDC39"/><path d="M-481.619-3550.15-481.619-3392.45-481.619-3384.15-477.492-3391.3-398.64-3527.88C-423.865-3542.45-452.483-3550.14-481.619-3550.15Z" id="path159" fill="#F6EB39"/></g></g></svg>